%TF.GenerationSoftware,KiCad,Pcbnew,(6.0.2)*%
%TF.CreationDate,2022-03-05T20:41:57-07:00*%
%TF.ProjectId,H0001-Solenoid-Driver,48303030-312d-4536-9f6c-656e6f69642d,rev?*%
%TF.SameCoordinates,Original*%
%TF.FileFunction,Other,User*%
%FSLAX46Y46*%
G04 Gerber Fmt 4.6, Leading zero omitted, Abs format (unit mm)*
G04 Created by KiCad (PCBNEW (6.0.2)) date 2022-03-05 20:41:57*
%MOMM*%
%LPD*%
G01*
G04 APERTURE LIST*
%ADD10C,0.050000*%
G04 APERTURE END LIST*
D10*
%TO.C,RV2*%
X112331500Y-87862400D02*
X120840500Y-87862400D01*
X112331500Y-99081600D02*
X112331500Y-87862400D01*
X120840500Y-87862400D02*
X120840500Y-99081600D01*
X120840500Y-99081600D02*
X112331500Y-99081600D01*
%TO.C,R1*%
X137654000Y-71503000D02*
X140674000Y-71503000D01*
X140674000Y-71503000D02*
X140674000Y-73023000D01*
X137654000Y-73023000D02*
X137654000Y-71503000D01*
X140674000Y-73023000D02*
X137654000Y-73023000D01*
%TO.C,P1*%
X153414700Y-90130100D02*
X153414700Y-81710100D01*
X167539700Y-81710100D02*
X167539700Y-90130100D01*
X167539700Y-90130100D02*
X153414700Y-90130100D01*
X153414700Y-81710100D02*
X167539700Y-81710100D01*
%TO.C,C1*%
X107429200Y-79781201D02*
X105321200Y-79781201D01*
X105321200Y-75361999D02*
X107429200Y-75361999D01*
X107429200Y-75361999D02*
X107429200Y-79781201D01*
X105321200Y-79781201D02*
X105321200Y-75361999D01*
X106375200Y-78972401D02*
G75*
G03*
X106375200Y-78972401I0J0D01*
G01*
%TO.C,H3*%
X111696000Y-69088000D02*
G75*
G03*
X111696000Y-69088000I-4000000J0D01*
G01*
%TO.C,K2*%
X124698000Y-89094000D02*
X135398000Y-89094000D01*
X135398000Y-99374000D02*
X124698000Y-99374000D01*
X135398000Y-89094000D02*
X135398000Y-99374000D01*
X124698000Y-99374000D02*
X124698000Y-89094000D01*
%TO.C,K1*%
X135398000Y-67250000D02*
X135398000Y-77530000D01*
X135398000Y-77530000D02*
X124698000Y-77530000D01*
X124698000Y-77530000D02*
X124698000Y-67250000D01*
X124698000Y-67250000D02*
X135398000Y-67250000D01*
%TO.C,RV1*%
X121094500Y-79523600D02*
X112585500Y-79523600D01*
X112585500Y-68304400D02*
X121094500Y-68304400D01*
X112585500Y-79523600D02*
X112585500Y-68304400D01*
X121094500Y-68304400D02*
X121094500Y-79523600D01*
%TO.C,P2*%
X167590500Y-78546500D02*
X153465500Y-78546500D01*
X153465500Y-66166500D02*
X167590500Y-66166500D01*
X167590500Y-66166500D02*
X167590500Y-78546500D01*
X153465500Y-78546500D02*
X153465500Y-66166500D01*
%TO.C,F1*%
X135728000Y-81138000D02*
X124368000Y-81138000D01*
X135728000Y-84978000D02*
X124368000Y-84978000D01*
X124368000Y-81138000D02*
X124368000Y-84978000D01*
X135728000Y-81138000D02*
X135728000Y-84978000D01*
%TO.C,R3*%
X146290000Y-83517200D02*
X146290000Y-85037200D01*
X143270000Y-85037200D02*
X143270000Y-83517200D01*
X146290000Y-85037200D02*
X143270000Y-85037200D01*
X143270000Y-83517200D02*
X146290000Y-83517200D01*
%TO.C,R4*%
X110869000Y-89775000D02*
X109349000Y-89775000D01*
X109349000Y-86755000D02*
X110869000Y-86755000D01*
X109349000Y-89775000D02*
X109349000Y-86755000D01*
X110869000Y-86755000D02*
X110869000Y-89775000D01*
%TO.C,C2*%
X106972000Y-90855601D02*
X104864000Y-90855601D01*
X104864000Y-86436399D02*
X106972000Y-86436399D01*
X106972000Y-86436399D02*
X106972000Y-90855601D01*
X104864000Y-90855601D02*
X104864000Y-86436399D01*
X105918000Y-87245199D02*
G75*
G03*
X105918000Y-87245199I0J0D01*
G01*
%TO.C,H1*%
X167525200Y-94538800D02*
G75*
G03*
X167525200Y-94538800I-4000000J0D01*
G01*
%TO.C,R2*%
X110238000Y-73978800D02*
X111758000Y-73978800D01*
X111758000Y-76998800D02*
X110238000Y-76998800D01*
X110238000Y-76998800D02*
X110238000Y-73978800D01*
X111758000Y-73978800D02*
X111758000Y-76998800D01*
%TO.C,H2*%
X111696000Y-95377000D02*
G75*
G03*
X111696000Y-95377000I-4000000J0D01*
G01*
%TD*%
M02*
