%TF.GenerationSoftware,KiCad,Pcbnew,(6.0.2)*%
%TF.CreationDate,2022-03-05T20:41:57-07:00*%
%TF.ProjectId,H0001-Solenoid-Driver,48303030-312d-4536-9f6c-656e6f69642d,rev?*%
%TF.SameCoordinates,Original*%
%TF.FileFunction,Soldermask,Top*%
%TF.FilePolarity,Negative*%
%FSLAX46Y46*%
G04 Gerber Fmt 4.6, Leading zero omitted, Abs format (unit mm)*
G04 Created by KiCad (PCBNEW (6.0.2)) date 2022-03-05 20:41:57*
%MOMM*%
%LPD*%
G01*
G04 APERTURE LIST*
%ADD10R,3.048000X1.854200*%
%ADD11R,0.940000X1.020000*%
%ADD12R,2.050000X2.050000*%
%ADD13C,2.050000*%
%ADD14R,1.600000X0.855600*%
%ADD15C,2.500000*%
%ADD16C,4.300000*%
%ADD17R,1.900000X1.500000*%
%ADD18C,2.286000*%
%ADD19R,2.620000X3.200000*%
%ADD20R,1.020000X0.940000*%
G04 APERTURE END LIST*
D10*
%TO.C,RV2*%
X116586000Y-97900500D03*
X116586000Y-89043500D03*
%TD*%
D11*
%TO.C,R1*%
X139954000Y-72263000D03*
X138374000Y-72263000D03*
%TD*%
D12*
%TO.C,P1*%
X154689700Y-87900100D03*
D13*
X154689700Y-83940100D03*
%TD*%
D14*
%TO.C,C1*%
X106375200Y-79099401D03*
X106375200Y-76043799D03*
%TD*%
D15*
%TO.C,P4*%
X97915000Y-95400000D03*
X97915000Y-91440000D03*
X97915000Y-87480000D03*
%TD*%
%TO.C,P3*%
X97915000Y-77112000D03*
X97915000Y-73152000D03*
X97915000Y-69192000D03*
%TD*%
D16*
%TO.C,H3*%
X107696000Y-69088000D03*
%TD*%
D17*
%TO.C,K2*%
X134198000Y-98044000D03*
X134198000Y-95504000D03*
X134198000Y-92964000D03*
X134198000Y-90424000D03*
X125898000Y-90424000D03*
X125898000Y-92964000D03*
X125898000Y-98044000D03*
%TD*%
%TO.C,K1*%
X134198000Y-76200000D03*
X134198000Y-73660000D03*
X134198000Y-71120000D03*
X134198000Y-68580000D03*
X125898000Y-68580000D03*
X125898000Y-71120000D03*
X125898000Y-76200000D03*
%TD*%
D10*
%TO.C,RV1*%
X116840000Y-78342500D03*
X116840000Y-69485500D03*
%TD*%
D12*
%TO.C,P2*%
X154740500Y-76316500D03*
D18*
X154740500Y-72356500D03*
X154740500Y-68396500D03*
%TD*%
D19*
%TO.C,F1*%
X134095000Y-83058000D03*
X126001000Y-83058000D03*
%TD*%
D11*
%TO.C,R3*%
X145570000Y-84277200D03*
X143990000Y-84277200D03*
%TD*%
D20*
%TO.C,R4*%
X110109000Y-87475000D03*
X110109000Y-89055000D03*
%TD*%
D14*
%TO.C,C2*%
X105918000Y-87118199D03*
X105918000Y-90173801D03*
%TD*%
D16*
%TO.C,H1*%
X163525200Y-94538800D03*
%TD*%
D20*
%TO.C,R2*%
X110998000Y-74698800D03*
X110998000Y-76278800D03*
%TD*%
D16*
%TO.C,H2*%
X107696000Y-95377000D03*
%TD*%
M02*
